<svg width="128" height="128" viewBox="0 0 128 128" fill="none" xmlns="http://www.w3.org/2000/svg">
<g clip-path="url(#clip0_2_3)">
<rect width="128" height="128" fill="white"/>
<g clip-path="url(#clip1_2_3)">
<path d="M20.9348 128.255C20.8944 124.235 18.1044 122.717 18.1044 122.717C18.1044 122.717 28.9966 123.642 29.2657 109.11C29.2657 109.11 30.3609 103.899 54.9194 106.049C56.9908 106.231 61.9014 117.799 62.247 121.527C62.5953 125.258 62.871 128.255 62.871 128.255H81.7737C81.6094 123.759 78.2031 122.297 76.2901 120.657C77.9121 106.55 80.6233 92.9635 87.0789 92.6635C92.1114 92.4316 96.5583 90.8696 98.7309 89.2502C100.905 87.632 114.597 87.3316 115.773 85.9928C116.966 84.6564 120.646 80.8002 119.902 79.1689C119.177 77.5273 112.457 75.7465 112.457 75.7465C112.457 75.7465 111.648 73.8152 111.061 72.6165C110.472 71.432 104.133 69.2032 104.133 69.2032C104.133 69.2032 102.822 65.0395 101.792 63.4007C100.753 61.7603 97.3691 66.2224 97.3691 66.2224C97.3691 66.2224 85.5252 66.239 81.7471 65.0395C76.5973 63.4007 75.337 60.3503 68.0518 60.2798C62.3878 60.2304 61.4585 64.1301 56.3691 64.3592C51.2409 64.603 41.6685 60.9791 28.3416 63.1553C14.9966 65.3324 9.83306 79.7562 8.81283 84.6682C7.77965 89.5664 11.7539 101.059 12.2034 106.094C12.651 111.114 8.95364 114.893 8.14248 117.471C7.34543 120.031 10.1622 128.255 10.1622 128.255C10.1622 128.255 20.9481 129.301 20.9348 128.255Z" fill="#F28724"/>
</g>
</g>
<defs>
<clipPath id="clip0_2_3">
<rect width="128" height="128" fill="white"/>
</clipPath>
<clipPath id="clip1_2_3">
<rect width="112" height="113" fill="white" transform="translate(8 38)"/>
</clipPath>
</defs>
</svg>
